{"glyphs":{"0":{"ha":860,"x_min":0,"x_max":0,"o":"m 75 81 b 0 415 24 125 0 267 b 82 799 0 583 31 758 b 364 879 150 851 257 879 b 647 799 472 879 579 851 b 729 415 699 758 729 583 b 654 81 729 267 706 125 b 364 -6 588 24 476 -6 b 75 81 253 -6 142 24 m 210 750 b 168 433 181 714 168 572 b 204 131 168 299 181 167 b 364 50 240 76 303 50 b 525 131 426 50 489 76 b 561 433 549 167 561 299 b 519 750 561 572 547 714 b 364 819 482 796 422 819 b 210 750 306 819 247 796 "},"1":{"ha":426,"x_min":0,"x_max":0,"o":"m 292 806 l 292 0 l 129 0 l 129 785 l 0 768 l 0 828 l 292 865 "},"2":{"ha":813,"x_min":0,"x_max":0,"o":"m 494 544 b 529 649 518 578 529 614 b 326 825 529 742 453 825 b 78 750 228 825 128 801 l 15 794 b 325 883 79 854 201 883 b 700 624 568 883 700 763 b 596 417 700 554 667 481 b 169 85 429 265 169 303 b 169 61 169 76 169 68 l 683 61 l 683 0 l 1 0 b 0 96 1 32 0 64 b 494 544 0 440 379 381 "},"3":{"ha":807,"x_min":0,"x_max":0,"o":"m 56 128 l 57 126 b 276 54 100 78 188 54 b 514 178 385 54 499 96 b 522 258 519 210 522 233 b 317 461 522 390 453 461 l 281 461 l 471 803 l 35 803 l 35 865 l 692 865 l 489 499 b 683 257 646 458 683 378 b 310 -6 683 114 607 -6 b 1 88 186 -6 63 29 l 0 89 "},"4":{"ha":865,"x_min":0,"x_max":0,"o":"m 169 343 l 169 343 l 0 343 l 158 863 l 321 840 l 210 476 l 189 406 l 458 406 l 458 865 l 458 865 l 458 865 l 621 865 l 621 844 l 621 406 l 746 406 l 746 343 l 621 343 l 621 0 l 458 0 l 458 26 l 458 343 l 169 343 "},"5":{"ha":794,"x_min":0,"x_max":0,"o":"m 56 128 l 57 126 b 276 54 100 78 188 54 b 514 178 385 54 499 96 b 522 258 519 210 522 233 b 317 461 522 390 453 461 l 194 461 l 28 461 l 96 865 l 629 865 l 629 803 l 251 803 l 206 524 l 315 524 b 668 368 418 524 638 490 b 683 257 678 328 683 292 b 310 -6 683 114 607 -6 b 1 88 186 -6 63 29 l 0 89 "},"6":{"ha":865,"x_min":0,"x_max":0,"o":"m 18 150 b 0 308 6 197 0 253 l 0 578 b 18 738 0 633 6 690 b 372 889 44 838 208 889 b 682 800 496 889 618 860 l 619 756 b 371 831 569 806 469 831 b 172 707 279 831 186 788 b 163 579 167 669 163 625 l 163 499 b 369 531 224 519 296 531 b 722 368 532 531 697 467 b 738 258 732 328 738 293 b 722 149 738 224 732 189 b 369 -6 696 46 533 -6 b 18 150 207 -6 43 46 m 163 308 b 172 181 163 263 165 218 b 371 53 188 96 278 53 b 568 178 463 53 553 94 b 576 263 574 210 576 236 b 568 349 576 290 574 317 b 371 471 554 429 463 471 l 369 472 l 369 471 b 163 428 293 471 217 457 "},"7":{"ha":768,"x_min":0,"x_max":0,"o":"m 0 803 l 0 865 l 568 865 l 568 865 l 633 865 l 483 483 l 294 0 l 119 0 l 433 803 l 0 803 "},"8":{"ha":865,"x_min":0,"x_max":0,"o":"m 56 594 b 43 681 47 626 43 654 b 56 768 43 708 47 736 b 368 888 75 847 222 888 b 681 768 514 888 660 847 b 693 681 689 736 693 708 b 554 496 693 597 674 533 b 736 258 701 454 736 374 b 721 149 736 224 731 189 b 368 -6 694 46 532 -6 b 15 150 206 -6 40 46 b 0 257 7 183 4 219 b 183 496 0 375 36 456 b 56 594 117 517 67 549 m 343 519 b 532 682 458 519 532 547 b 368 850 532 793 479 850 b 204 688 258 850 204 794 b 343 519 204 583 246 531 m 163 257 b 171 181 164 231 167 204 b 369 53 185 96 278 53 b 567 178 461 53 551 94 b 575 263 572 210 575 236 b 567 349 575 290 572 317 b 368 471 551 431 460 471 b 163 271 235 471 163 404 b 163 257 163 267 163 261 "},"9":{"ha":869,"x_min":0,"x_max":0,"o":"m 721 733 b 738 576 732 688 738 632 l 738 307 b 719 146 738 250 732 194 b 367 -6 694 46 531 -6 b 56 85 243 -6 119 24 l 118 129 b 367 54 168 78 268 54 b 565 176 458 54 550 96 b 575 304 572 215 575 260 l 575 385 b 369 354 514 364 442 354 b 15 515 206 354 40 417 b 0 625 6 554 -1 590 b 15 736 0 661 6 696 b 367 889 42 838 203 889 b 721 733 531 889 694 838 m 575 576 b 565 704 575 621 572 667 b 367 831 550 789 458 831 b 161 621 229 831 161 760 b 169 536 161 594 164 568 b 367 413 185 456 276 413 l 368 411 l 369 413 b 575 457 444 413 521 428 "}," ":{"ha":421,"x_min":0,"x_max":0,"o":""},"E":{"ha":711,"x_min":0,"x_max":0,"o":"m 576 881 l 576 821 l 369 821 b 350 821 363 821 356 821 b 163 796 269 821 210 813 l 163 511 l 476 511 l 476 451 l 163 451 l 163 299 b 172 168 163 253 167 207 b 371 46 186 88 281 46 b 572 86 444 46 518 58 l 617 33 b 371 -14 550 1 460 -14 b 18 138 207 -14 44 38 b 0 299 6 186 0 242 l 0 772 b 343 881 60 849 197 881 b 369 881 351 881 361 881 "},"F":{"ha":719,"x_min":0,"x_max":0,"o":"m 576 881 l 576 821 l 369 821 b 350 821 363 821 356 821 b 163 796 269 821 210 813 l 163 511 l 476 511 l 476 451 l 163 451 l 163 0 l 0 0 l 0 568 l 0 772 b 343 881 60 849 197 881 b 369 881 351 881 361 881 "},"G":{"ha":871,"x_min":0,"x_max":0,"o":"m 0 299 l 0 568 b 18 729 0 625 6 681 b 372 879 44 828 208 879 b 682 790 494 879 618 850 l 619 746 b 371 821 569 797 469 821 b 172 699 281 821 186 779 b 163 569 167 660 163 615 l 163 299 b 172 171 163 254 165 208 b 371 44 188 86 278 44 b 575 228 492 44 575 106 l 575 358 l 371 358 l 371 417 l 738 417 l 738 235 b 722 139 736 204 731 174 b 371 -15 696 38 535 -15 b 18 142 207 -15 44 38 b 0 299 6 188 -1 243 "},"H":{"ha":793,"x_min":0,"x_max":0,"o":"m 0 875 l 163 854 l 163 511 l 501 511 l 501 567 l 501 875 l 664 854 l 664 567 l 664 300 l 664 299 l 664 21 l 664 0 l 501 0 l 501 299 l 501 300 l 501 451 l 163 451 l 163 21 l 163 0 l 0 0 b 0 875 0 289 0 588 "},"A":{"ha":832,"x_min":0,"x_max":0,"o":"m 538 0 l 538 357 l 163 357 l 163 0 l 0 0 l 0 757 l 0 757 l 0 757 l 0 772 b 681 729 125 932 635 911 b 700 579 693 685 699 632 l 700 579 l 700 568 l 700 538 l 700 0 m 538 579 b 526 699 536 621 533 663 b 329 821 513 779 421 821 b 163 796 271 821 211 813 l 163 418 l 538 418 l 538 538 l 538 538 l 538 579 "},"D":{"ha":832,"x_min":0,"x_max":0,"o":"m 163 0 l 0 0 l 0 772 b 328 879 57 844 192 879 b 681 729 492 879 654 828 b 700 575 692 683 700 629 l 700 554 l 700 297 b 681 151 699 246 692 194 b 329 0 656 51 493 0 m 538 575 b 526 699 538 618 532 661 b 329 821 513 779 421 821 b 163 796 271 821 211 813 l 163 58 l 329 58 b 526 182 421 58 513 101 b 538 310 532 219 538 264 l 538 554 "},"I":{"ha":292,"x_min":0,"x_max":0,"o":"m 0 875 l 163 854 b 163 0 163 569 163 285 l 0 0 b 0 875 0 292 0 583 "},"B":{"ha":854,"x_min":0,"x_max":0,"o":"m 415 818 b 351 821 397 821 375 821 b 163 796 271 821 210 813 l 163 511 l 381 511 b 547 671 492 515 547 575 b 415 818 547 763 508 806 m 342 451 l 163 451 l 163 299 b 172 171 163 254 165 208 b 371 44 188 86 278 44 b 576 249 504 44 576 114 b 371 451 576 381 508 451 l 369 451 m 0 757 l 0 772 b 347 881 61 849 197 881 b 674 754 496 881 650 840 b 686 671 682 724 686 697 b 553 488 686 581 654 526 b 738 249 706 443 738 363 b 722 139 738 214 732 178 b 371 -15 696 36 533 -15 b 18 142 207 -15 44 38 b 0 299 6 188 0 243 "},"C":{"ha":838,"x_min":0,"x_max":0,"o":"m 707 104 b 372 -14 656 24 514 -14 b 18 138 208 -14 43 38 b 0 268 8 176 3 222 l 0 568 b 18 729 0 625 6 681 b 372 879 44 828 208 879 b 682 790 494 879 618 850 l 619 746 b 371 821 569 797 469 821 b 172 699 281 821 186 779 b 163 568 167 660 163 614 l 163 296 b 172 168 163 250 165 206 b 371 44 186 88 279 44 b 639 143 485 44 599 76 "},"J":{"ha":310,"x_min":0,"x_max":0,"o":"m -197 -217 b 1 -92 -106 -217 -14 -175 b 11 39 8 -53 11 -7 l 18 875 l 181 854 l 174 39 b 156 -122 174 -18 168 -74 b -197 -275 131 -224 -33 -275 "},"K":{"ha":874,"x_min":0,"x_max":0,"o":"m 0 875 l 163 854 l 163 386 l 642 865 l 725 865 l 593 733 l 319 460 l 779 0 l 549 0 l 204 344 l 163 386 l 163 21 l 163 0 l 0 0 b 0 875 0 289 0 588 "},"L":{"ha":597,"x_min":0,"x_max":0,"o":"m 0 875 l 163 854 l 163 58 l 468 58 l 468 0 l 163 0 l 0 0 b 0 875 0 292 0 583 "},"M":{"ha":1049,"x_min":0,"x_max":0,"o":"m 731 704 l 468 328 l 465 322 l 426 376 l 199 704 l 192 582 b 164 21 183 413 174 214 l 163 0 l 0 0 b 43 851 14 268 29 583 b 47 865 43 857 44 861 l 86 865 l 113 865 l 161 865 l 465 431 l 768 865 l 817 865 l 843 865 l 883 865 b 886 851 885 861 886 857 b 929 0 900 583 915 268 l 767 0 l 765 21 b 738 582 756 214 746 413 l 731 704 "},"N":{"ha":829,"x_min":0,"x_max":0,"o":"m 694 875 b 694 0 694 588 694 289 l 622 0 l 163 639 l 163 22 l 163 0 l 0 0 l 0 865 l 72 865 b 532 226 225 651 378 439 l 532 854 l 694 875 "},"O":{"ha":953,"x_min":0,"x_max":0,"o":"m 803 146 b 21 146 751 -67 72 -67 b 21 721 -7 256 -7 610 b 803 721 72 933 751 933 b 803 146 829 610 829 256 m 175 174 b 647 174 204 0 618 0 b 647 692 667 286 667 581 b 175 692 618 867 204 867 b 175 174 157 581 157 286 "},"P":{"ha":817,"x_min":0,"x_max":0,"o":"m 163 0 l 0 0 l 0 772 b 328 879 57 844 192 879 b 681 729 492 879 656 828 b 700 568 693 681 700 625 b 681 407 700 511 693 456 b 329 256 656 310 493 256 l 163 256 m 329 315 b 526 438 421 315 513 357 b 538 568 533 476 538 522 b 526 699 538 614 533 660 b 329 821 513 779 421 821 b 163 796 271 821 211 813 l 163 315 "},"Q":{"ha":957,"x_min":0,"x_max":0,"o":"m 807 146 b 415 -14 781 39 599 -14 b 25 146 233 -14 51 39 b 4 432 11 200 4 317 b 25 721 4 549 11 665 b 415 881 51 826 233 881 b 807 721 599 881 781 826 b 828 432 821 665 828 549 b 807 146 828 317 821 200 m 624 -183 b 649 -181 632 -182 640 -182 b 496 -93 625 -118 565 -93 b 338 -128 439 -93 381 -110 l 283 -82 b 524 -29 347 -47 436 -29 b 819 -183 668 -29 788 -74 m 181 174 b 415 43 194 86 306 43 b 651 174 526 43 636 86 b 665 433 661 229 665 331 b 651 692 665 535 661 636 b 415 822 636 779 526 822 b 181 692 306 822 196 779 b 165 433 171 636 165 535 b 181 174 165 331 171 229 "},"R":{"ha":817,"x_min":0,"x_max":0,"o":"m 163 0 l 0 0 l 0 772 b 328 879 57 844 192 879 b 681 729 492 879 656 828 b 700 568 693 681 700 625 b 493 275 700 419 681 321 l 676 0 l 490 0 l 282 315 l 329 315 b 526 438 421 315 513 357 b 538 568 533 476 538 522 b 526 699 538 614 533 660 b 329 821 513 779 421 821 b 163 796 271 821 211 813 "},"S":{"ha":817,"x_min":0,"x_max":0,"o":"m 68 143 b 336 44 108 76 222 44 b 540 185 463 44 540 111 b 340 365 540 250 481 321 b 10 658 133 431 10 519 b 372 881 14 819 200 881 b 682 790 494 881 618 849 l 619 746 b 371 821 569 797 469 821 b 168 689 244 821 168 760 b 364 514 168 626 228 556 b 696 221 528 463 696 392 b 336 -14 696 61 543 -14 b 0 104 193 -14 51 25 "},"T":{"ha":707,"x_min":0,"x_max":0,"o":"m 203 299 l 203 300 l 203 807 l 0 807 l 0 865 l 203 865 l 569 865 l 569 807 l 367 807 l 367 300 l 367 299 l 367 0 l 203 0 l 203 299 "},"U":{"ha":961,"x_min":0,"x_max":0,"o":"m 804 146 b 413 -14 778 39 596 -14 b 22 146 231 -14 49 39 b 0 549 4 221 0 399 b 1 875 0 658 1 767 l 164 854 b 161 531 164 747 161 639 b 176 174 161 404 164 250 b 413 43 190 86 303 43 b 649 174 524 43 633 86 b 665 579 663 256 665 432 b 664 875 665 678 664 779 l 826 854 b 826 596 826 769 826 682 b 804 146 826 428 824 229 "},"V":{"ha":851,"x_min":0,"x_max":0,"o":"m 171 865 l 419 100 l 668 865 l 733 865 l 451 0 l 388 0 l 281 0 l 0 865 l 171 865 "},"W":{"ha":1075,"x_min":0,"x_max":0,"o":"m 731 161 l 767 865 l 929 865 l 883 0 l 768 0 l 465 435 l 161 0 b 47 0 124 0 85 0 l 0 865 l 163 865 l 164 844 l 199 161 l 465 542 l 731 161 "},"X":{"ha":817,"x_min":0,"x_max":0,"o":"m 189 865 l 376 539 l 604 865 l 679 865 l 496 601 l 411 481 l 688 0 l 500 0 l 308 333 l 75 0 l 0 0 l 274 392 l 1 865 l 189 865 "},"Y":{"ha":851,"x_min":0,"x_max":0,"o":"m 188 865 l 406 488 l 653 865 l 728 865 l 446 436 b 446 0 446 290 446 146 l 283 0 b 283 374 283 125 283 249 l 0 865 l 188 865 "},"Z":{"ha":807,"x_min":0,"x_max":0,"o":"m 465 807 l 32 807 l 32 865 b 688 865 244 865 475 865 l 222 58 l 664 58 l 664 0 b 0 0 442 0 221 0 l 465 807 "},"a":{"ha":865,"x_min":0,"x_max":0,"o":"m 740 0 l 578 21 b 371 -10 518 0 444 -10 b 18 142 207 -10 44 42 b 0 301 6 189 0 244 b 18 463 0 357 6 414 b 369 615 43 564 206 615 b 724 460 533 615 697 564 b 740 314 735 417 740 365 m 578 304 b 568 431 578 349 575 393 b 369 556 553 514 463 556 b 172 432 279 556 186 514 b 163 301 165 393 163 347 b 172 171 163 256 165 210 b 371 49 186 90 279 49 b 578 93 447 49 524 63 "},"b":{"ha":865,"x_min":0,"x_max":0,"o":"m 163 299 b 172 171 163 254 165 208 b 371 44 188 86 278 44 b 568 169 463 44 553 86 b 578 300 575 208 578 254 b 568 429 578 344 575 390 b 371 553 554 510 463 553 b 163 508 293 553 217 538 m 0 865 l 163 844 l 163 581 b 371 611 224 601 297 611 b 722 460 533 611 697 560 b 740 300 735 413 740 356 b 722 139 740 243 735 188 b 371 -15 696 36 533 -15 b 18 142 207 -15 44 38 b 0 299 6 188 -1 243 "},"c":{"ha":821,"x_min":0,"x_max":0,"o":"m 707 108 b 372 -10 656 28 514 -10 b 18 142 208 -10 43 42 b 0 301 6 189 0 244 b 18 463 0 357 6 414 b 369 615 43 564 206 615 b 690 518 499 615 628 583 l 626 475 b 371 557 578 529 474 557 b 172 432 279 557 186 515 b 163 301 165 393 163 347 b 172 171 163 256 165 210 b 371 49 186 90 279 49 b 639 147 485 49 599 81 "},"d":{"ha":874,"x_min":0,"x_max":0,"o":"m 578 508 b 371 553 524 538 447 553 b 172 429 279 553 186 510 b 163 300 165 392 163 344 b 172 169 163 254 165 208 b 369 44 186 86 278 44 b 568 171 461 44 553 86 b 578 299 575 208 578 254 m 740 299 b 724 142 740 243 735 188 b 369 -15 697 38 533 -15 b 18 139 207 -15 43 36 b 0 300 6 186 0 243 b 18 460 0 356 6 413 b 371 611 44 560 207 611 b 578 581 444 611 517 601 l 578 844 l 740 865 l 740 299 "},"e":{"ha":865,"x_min":0,"x_max":0,"o":"m 164 260 b 172 171 165 229 167 199 b 371 49 186 90 279 49 b 639 147 485 49 599 81 l 707 108 b 378 -10 657 29 517 -10 b 18 142 211 -10 44 39 b 0 301 6 189 0 244 b 18 463 0 357 6 414 b 369 615 43 564 206 615 b 724 460 532 615 699 564 b 740 322 733 418 740 371 l 740 260 l 164 260 m 578 322 b 568 431 578 360 574 397 b 369 556 553 514 461 556 b 172 432 279 556 186 514 b 163 322 167 399 164 361 l 578 322 "},"f":{"ha":492,"x_min":0,"x_max":0,"o":"m 371 821 b 172 697 279 821 188 779 b 163 567 165 658 163 613 l 163 322 l 314 322 l 314 260 l 163 260 l 163 0 l 0 0 l 0 567 b 18 726 0 622 6 679 b 371 881 44 829 207 881 "},"g":{"ha":874,"x_min":0,"x_max":0,"o":"m 740 21 b 722 -122 739 -29 733 -79 b 369 -275 697 -224 533 -275 l 369 -217 b 568 -92 461 -217 554 -175 b 578 21 574 -58 578 -19 b 371 -10 517 0 443 -10 b 18 142 207 -10 44 42 b 0 301 6 189 0 244 b 18 463 0 357 6 414 b 369 615 43 564 206 615 b 724 460 533 615 697 564 b 740 304 735 414 740 358 l 740 39 l 740 21 m 578 303 b 568 431 578 347 575 392 b 369 556 553 514 461 556 b 172 432 279 556 186 514 b 163 301 165 393 163 347 b 172 171 163 256 165 210 b 371 49 186 90 279 49 b 578 93 447 49 524 63 l 578 303 "},"h":{"ha":874,"x_min":0,"x_max":0,"o":"m 163 0 l 0 0 l 0 300 l 0 865 l 163 844 l 163 581 b 371 611 224 601 297 611 b 722 460 533 611 697 560 b 740 300 735 413 740 356 l 740 0 l 578 0 l 578 300 b 568 429 578 346 575 392 b 371 553 554 510 463 553 b 163 508 293 553 217 538 l 163 299 l 163 21 "},"i":{"ha":299,"x_min":0,"x_max":0,"o":"m 4 0 l 4 599 l 167 576 l 167 0 m 179 811 b 179 729 186 786 186 753 b -8 726 167 672 6 674 b -8 813 -14 751 -14 786 b 179 811 6 867 165 867 "},"j":{"ha":317,"x_min":0,"x_max":0,"o":"m -189 -217 b 10 -92 -97 -217 -6 -175 b 19 39 17 -53 19 -7 l 19 39 l 19 596 l 182 575 l 182 -3 l 182 -3 b 164 -122 179 -44 174 -86 b -189 -275 139 -224 -25 -275 l -189 -217 m 194 811 b 194 729 201 786 201 753 b 7 726 181 672 21 674 b 7 813 1 751 1 786 b 194 811 21 867 181 867 "},"k":{"ha":724,"x_min":0,"x_max":0,"o":"m 0 865 l 163 844 l 163 247 l 410 0 l 640 0 l 319 321 l 583 586 l 501 586 l 163 247 l 163 21 l 163 0 l 0 0 b 0 865 0 289 0 576 "},"l":{"ha":299,"x_min":0,"x_max":0,"o":"m 0 865 l 163 844 b 163 21 163 569 163 296 l 163 0 l 0 0 b 0 865 0 289 0 576 "},"m":{"ha":1339,"x_min":0,"x_max":0,"o":"m 163 0 l 0 0 l 0 589 l 136 571 b 353 611 196 597 274 611 b 614 546 453 611 554 589 b 875 611 675 589 775 611 b 1189 475 1021 611 1165 565 b 1206 332 1200 432 1206 382 l 1206 0 l 1043 0 l 1043 332 b 1035 444 1043 372 1040 411 b 875 553 1024 517 949 553 l 875 554 b 683 519 808 554 746 540 l 683 0 l 522 0 l 522 349 b 514 444 521 383 518 417 b 353 553 501 517 428 553 l 353 554 b 163 519 293 554 217 546 l 163 238 "},"n":{"ha":869,"x_min":0,"x_max":0,"o":"m 163 0 l 0 0 l 0 589 l 138 571 b 371 611 203 599 286 611 b 722 460 533 611 697 560 b 740 300 735 413 740 356 l 740 0 l 578 0 l 578 300 b 568 429 578 346 575 392 b 371 553 554 510 463 553 b 163 508 293 553 217 538 l 163 238 "},"o":{"ha":874,"x_min":0,"x_max":0,"o":"m 724 460 b 724 147 746 367 747 242 b 18 142 672 -65 69 -58 b 18 463 -6 236 -6 367 b 724 460 69 667 672 667 m 568 431 b 172 432 539 599 201 597 b 172 171 160 354 160 249 b 569 176 201 10 540 4 b 568 431 582 253 582 354 "},"p":{"ha":874,"x_min":0,"x_max":0,"o":"m 0 599 l 158 578 b 371 611 221 600 296 611 b 722 458 535 611 696 560 b 740 297 735 410 740 353 b 722 138 742 240 735 185 b 371 -14 697 38 533 -14 b 163 17 297 -14 224 -4 l 163 -247 l 0 -268 l 0 299 m 163 89 b 371 44 217 60 293 44 b 568 168 463 44 554 88 b 578 297 575 206 578 251 b 568 428 578 343 575 389 b 371 553 553 511 463 553 b 172 426 278 553 188 511 b 163 300 165 389 163 344 l 163 299 l 163 89 "},"q":{"ha":874,"x_min":0,"x_max":0,"o":"m 740 299 l 740 -268 l 578 -247 l 578 17 b 371 -14 517 -4 444 -14 b 18 138 207 -14 44 38 b 0 297 6 185 0 240 b 18 458 0 353 6 410 b 369 611 43 560 207 611 b 583 578 446 611 521 600 l 740 599 m 578 299 l 578 300 b 568 426 578 344 575 389 b 369 553 553 511 461 553 b 172 428 278 553 186 511 b 163 297 165 389 163 343 b 172 168 163 251 165 206 b 371 44 186 88 279 44 b 578 89 447 44 524 60 "},"r":{"ha":544,"x_min":0,"x_max":0,"o":"m 163 0 l 0 0 l 0 301 l 0 599 l 150 579 b 367 615 213 603 289 615 b 429 613 388 615 408 614 l 429 554 b 371 557 410 556 390 557 b 172 432 279 557 186 515 b 163 306 167 394 163 350 l 163 238 "},"s":{"ha":636,"x_min":0,"x_max":0,"o":"m 440 29 b 0 44 331 -39 106 -32 l 54 81 b 72 72 57 79 68 75 b 335 86 142 38 281 15 b 344 181 354 111 368 153 b 36 333 293 238 111 242 b 108 576 -35 419 7 536 b 486 557 215 619 386 611 l 438 515 b 400 529 429 519 411 525 b 181 506 329 553 228 558 b 176 399 153 475 142 428 b 489 240 240 343 428 340 b 440 29 532 171 510 71 "},"t":{"ha":563,"x_min":0,"x_max":0,"o":"m 103 865 l 265 844 l 265 589 l 439 589 l 439 526 l 265 526 l 265 21 l 265 0 l 103 0 l 103 526 l 0 526 l 0 589 l 103 589 l 103 865 "},"u":{"ha":878,"x_min":0,"x_max":0,"o":"m 582 588 l 744 588 l 744 13 l 744 3 l 589 24 b 374 -10 526 0 450 -10 b 22 142 211 -10 47 42 b 3 301 10 189 3 244 l 3 597 l 165 576 l 165 301 b 176 171 167 256 169 210 b 374 49 190 90 282 49 b 582 93 450 49 528 63 l 582 363 "},"v":{"ha":715,"x_min":0,"x_max":0,"o":"m 583 588 l 392 0 l 326 0 l 192 0 l 1 588 l 172 588 l 344 56 l 518 588 l 583 588 "},"w":{"ha":1036,"x_min":0,"x_max":0,"o":"m 450 435 l 147 0 l 32 0 b 29 13 31 4 29 8 l 0 588 l 163 588 l 185 161 l 450 542 l 454 536 l 717 161 l 739 588 l 901 588 l 872 13 b 868 0 872 8 871 4 l 754 0 l 450 435 "},"x":{"ha":636,"x_min":0,"x_max":0,"o":"m 188 588 l 296 401 l 426 588 l 501 588 l 415 464 l 331 342 l 528 0 l 339 0 l 228 194 l 92 0 l 15 0 l 193 254 l 0 588 l 188 588 "},"y":{"ha":711,"x_min":0,"x_max":0,"o":"m 582 588 l 339 -160 l 289 -312 l 225 -312 l 326 0 l 192 0 l 0 588 l 171 588 l 344 56 l 517 588 l 582 588 "},"z":{"ha":650,"x_min":0,"x_max":0,"o":"m 21 526 l 21 588 l 339 588 l 458 588 l 528 588 l 224 61 l 513 61 l 513 0 l 188 0 l 188 0 l 0 0 l 304 526 l 21 526 "},"ı":{"ha":299,"x_min":0,"x_max":0,"o":"m 167 0 l 4 0 l 4 599 l 167 576 l 167 0 "},"!":{"ha":311,"x_min":0,"x_max":0,"o":"m 192 119 b 192 38 199 96 199 61 b 4 35 179 -19 18 -18 b 4 121 -1 61 -1 94 b 192 119 18 175 178 175 m 179 844 l 179 201 l 17 201 l 17 865 "},"\"":{"ha":417,"x_min":0,"x_max":0,"o":"m 122 849 l 122 638 l 0 658 l 0 865 m 290 849 l 290 638 l 168 658 l 168 865 "},"&":{"ha":865,"x_min":0,"x_max":0,"o":"m 631 803 l 221 803 l 606 110 b 669 249 640 139 663 182 l 747 249 b 640 46 739 144 701 82 l 693 -49 l 507 -49 l 481 0 b 382 -6 449 -3 414 -1 b 22 149 217 -6 50 43 b 7 258 13 188 7 224 b 203 499 7 383 47 458 l 0 865 l 631 865 m 243 428 b 169 258 179 389 169 315 b 415 54 169 181 186 54 b 449 57 426 56 438 57 "},"'":{"ha":246,"x_min":0,"x_max":0,"o":"m 0 865 l 122 849 l 122 638 l 0 658 "},"(":{"ha":496,"x_min":0,"x_max":0,"o":"m 75 -8 b 0 407 24 36 0 218 b 82 888 0 622 31 847 b 365 967 150 940 257 967 l 365 908 b 193 838 306 908 231 885 b 151 433 165 803 151 617 b 188 43 151 256 164 78 b 365 -37 224 -11 303 -37 l 365 -93 b 75 -8 253 -93 142 -65 "},")":{"ha":500,"x_min":0,"x_max":0,"o":"m 290 -8 b 0 -93 224 -65 113 -93 l 0 -37 b 178 43 63 -37 142 -11 b 214 433 201 78 214 256 b 172 838 214 617 200 803 b 0 908 135 885 60 908 l 0 967 b 283 888 108 967 215 940 b 365 407 335 847 365 622 b 290 -8 365 218 342 36 "},"*":{"ha":510,"x_min":0,"x_max":0,"o":"m 154 886 l 208 886 l 208 769 l 292 853 l 329 814 l 247 732 l 364 732 l 364 678 l 247 678 l 329 596 l 292 557 l 208 640 l 208 522 l 154 522 l 154 640 l 72 557 l 35 596 l 117 678 l 0 678 l 0 732 l 117 732 l 35 814 l 72 853 l 154 769 l 154 886 "},"+":{"ha":654,"x_min":0,"x_max":0,"o":"m 525 439 l 525 346 l 308 346 l 308 131 l 215 131 l 215 346 l 0 346 l 0 439 l 215 439 l 215 654 l 308 654 l 308 439 l 525 439 "},":":{"ha":338,"x_min":0,"x_max":0,"o":"m 192 119 b 192 38 199 96 199 61 b 4 35 179 -19 18 -18 b 4 121 -1 61 -1 94 b 192 119 18 175 178 175 m 192 579 b 192 496 199 554 199 521 b 4 494 179 440 18 442 b 4 579 -1 519 -1 554 b 192 579 18 633 178 635 "},".":{"ha":338,"x_min":0,"x_max":0,"o":"m 192 119 b 192 38 199 96 199 61 b 4 35 179 -19 18 -18 b 4 121 -1 61 -1 94 b 192 119 18 175 178 175 "},";":{"ha":347,"x_min":0,"x_max":0,"o":"m 192 119 b 197 78 196 107 197 93 l 197 78 b 160 -94 197 3 183 -51 l 82 -94 b 117 -4 100 -72 111 -40 b 4 35 68 -8 13 6 b 4 121 -1 61 -1 94 b 192 119 18 175 178 175 m 192 579 b 192 496 199 554 199 521 b 4 494 179 440 18 442 b 4 579 -1 519 -1 554 b 192 579 18 633 178 635 "},",":{"ha":343,"x_min":0,"x_max":0,"o":"m 192 119 b 197 78 196 107 197 93 l 197 78 b 160 -94 197 3 183 -51 l 82 -94 b 117 -4 100 -72 111 -40 b 4 35 68 -8 13 6 b 4 121 -1 61 -1 94 b 192 119 18 175 178 175 "},"-":{"ha":681,"x_min":0,"x_max":0,"o":"m 525 439 l 525 346 l 0 346 l 0 439 l 525 439 "},"/":{"ha":514,"x_min":0,"x_max":0,"o":"m 381 967 l 446 967 l 65 -87 l 0 -87 l 381 967 "},"=":{"ha":658,"x_min":0,"x_max":0,"o":"m 525 538 l 525 444 l 0 444 l 0 538 l 525 538 m 525 340 l 525 247 l 0 247 l 0 340 l 525 340 "},"?":{"ha":817,"x_min":0,"x_max":0,"o":"m 481 544 b 514 649 503 578 514 614 b 313 825 514 740 439 825 b 63 750 213 825 113 801 l 0 794 b 310 883 64 854 188 883 b 685 624 553 883 685 763 b 581 417 685 554 651 481 b 375 306 522 364 447 333 l 375 201 l 213 201 l 213 397 b 481 544 314 438 421 460 m 388 119 b 393 78 390 107 393 93 b 293 -6 393 19 365 -6 b 196 78 218 -6 196 19 b 293 161 196 136 219 161 b 388 119 336 161 381 147 "},"@":{"ha":1157,"x_min":0,"x_max":0,"o":"m 811 136 l 925 121 b 951 325 947 167 951 258 b 929 514 951 392 943 457 b 511 683 900 625 707 679 b 90 515 318 683 119 626 b 69 322 75 458 69 390 b 92 129 69 254 76 186 b 515 -35 119 22 318 -35 b 664 -22 565 -35 615 -31 l 656 -90 b 515 -100 610 -96 563 -100 b 25 114 289 -100 63 -31 b 0 322 8 176 0 249 b 24 531 0 396 7 469 b 511 747 61 676 285 747 b 997 528 738 747 958 676 b 1019 310 1014 464 1019 388 b 968 58 1019 218 1008 114 l 900 67 l 811 78 l 679 96 b 510 69 629 78 569 69 b 225 193 378 69 246 114 b 208 325 214 232 208 279 b 224 453 208 371 214 415 b 510 576 244 535 378 576 b 796 451 643 576 774 535 b 811 333 804 417 810 375 m 679 325 b 671 428 679 361 676 397 b 510 531 658 496 585 531 b 350 429 436 531 361 496 b 342 324 344 397 342 361 b 350 218 342 286 344 249 b 510 118 361 151 436 118 b 679 154 572 118 635 129 "},"[":{"ha":408,"x_min":0,"x_max":0,"o":"m 0 875 l 0 875 l 0 938 l 282 938 l 282 875 l 135 875 l 135 -4 l 282 -4 l 282 -65 l 135 -65 l 135 -65 l 0 -65 l 0 -65 l 0 -65 l 0 -4 l 0 -4 l 0 875 "},"]":{"ha":417,"x_min":0,"x_max":0,"o":"m 282 875 l 282 -4 l 282 -4 l 282 -65 l 282 -65 l 282 -65 l 147 -65 l 147 -65 l 0 -65 l 0 -4 l 147 -4 l 147 875 l 0 875 l 0 938 l 282 938 "},"\\":{"ha":483,"x_min":0,"x_max":0,"o":"m 381 -87 l 0 967 l 65 967 l 446 -87 "},"_":{"ha":843,"x_min":0,"x_max":0,"o":"m 710 61 l 710 0 l 0 0 l 0 61 l 710 61 "},"{":{"ha":540,"x_min":0,"x_max":0,"o":"m 121 439 l 201 360 b 242 42 206 207 218 71 b 414 -29 279 -6 354 -29 l 414 -87 b 131 -8 306 -87 197 -61 b 50 390 86 26 57 203 l 0 439 l 50 489 b 131 888 57 675 86 851 b 414 967 199 940 306 967 l 414 908 b 242 838 354 908 279 885 b 201 519 218 807 206 671 "},"}":{"ha":504,"x_min":0,"x_max":0,"o":"m 213 519 b 172 838 208 671 196 807 b 0 908 135 885 60 908 l 0 967 b 283 888 108 967 215 940 b 364 489 328 851 357 675 l 414 439 l 364 390 b 283 -8 357 203 328 26 b 0 -87 217 -61 108 -87 l 0 -29 b 172 42 60 -29 135 -6 b 213 360 196 71 208 207 l 293 439 "},"€":{"ha":896,"x_min":0,"x_max":0,"o":"m 397 338 l 267 338 l 267 303 b 276 174 267 257 269 213 b 474 51 292 93 382 51 b 743 150 589 51 703 83 l 811 111 b 475 -7 758 31 617 -7 b 122 144 313 -7 147 44 b 104 275 113 183 104 229 l 104 338 l 0 338 l 15 399 l 104 399 l 104 481 l 10 481 l 25 542 l 104 542 l 104 575 b 122 735 104 631 110 688 b 476 886 147 835 313 886 b 786 797 600 886 722 857 l 724 753 b 474 828 674 803 574 828 b 276 704 382 828 292 786 b 267 575 269 667 267 621 l 267 542 l 421 542 l 407 481 l 267 481 l 267 399 l 411 399 "},"…":{"ha":1013,"x_min":0,"x_max":0,"o":"m 192 119 b 192 38 199 96 199 61 b 4 35 179 -19 18 -18 b 4 121 -1 61 -1 94 b 192 119 18 175 178 175 m 529 119 b 529 38 536 96 536 61 b 342 35 517 -19 356 -18 b 342 121 336 61 336 94 b 529 119 356 175 515 175 m 867 119 b 867 38 874 96 874 61 b 679 35 854 -19 693 -18 b 679 121 674 61 674 94 b 867 119 693 175 853 175 "},"Œ":{"ha":1374,"x_min":0,"x_max":0,"o":"m 1239 821 l 1013 821 b 825 796 932 821 872 813 l 825 511 l 1139 511 l 1139 451 l 825 451 l 825 299 b 835 168 825 253 829 207 b 1033 46 849 88 943 46 b 1235 86 1107 46 1181 58 l 1279 33 b 1033 -14 1213 1 1122 -14 b 736 61 918 -14 804 11 b 21 146 553 -61 64 -33 b 21 721 -7 256 -7 610 b 715 818 63 893 518 925 b 1006 881 786 861 893 881 l 1239 881 m 175 174 b 647 174 204 0 618 0 b 647 692 667 286 667 581 b 175 692 618 867 204 867 b 175 174 157 581 157 286 "},"“":{"ha":593,"x_min":0,"x_max":0,"o":"m 260 693 b 254 735 256 706 254 721 l 254 735 b 292 908 254 810 268 865 l 369 908 b 335 817 351 885 340 853 b 447 778 383 822 439 808 b 447 693 453 753 453 718 b 260 693 433 639 274 638 m 4 693 b -1 735 1 706 -1 721 l -1 735 b 36 908 -1 810 13 865 l 114 908 b 79 817 96 885 85 853 b 192 778 128 822 183 808 b 192 693 197 753 197 718 b 4 693 178 639 18 638 "},"‘":{"ha":333,"x_min":0,"x_max":0,"o":"m 4 693 b -1 735 1 706 -1 721 l -1 735 b 36 908 -1 810 13 865 l 114 908 b 79 817 96 885 85 853 b 192 778 128 822 183 808 b 192 693 197 753 197 718 b 4 693 178 639 18 638 "},"’":{"ha":329,"x_min":0,"x_max":0,"o":"m 192 853 b 197 811 194 840 197 825 l 197 811 b 160 638 197 736 183 681 l 82 638 b 117 729 100 661 111 693 b 4 768 68 724 13 738 b 4 853 -1 793 -1 828 b 192 853 18 907 178 908 "},"”":{"ha":606,"x_min":0,"x_max":0,"o":"m 192 853 b 197 811 196 840 197 825 l 197 811 b 160 638 197 736 183 681 l 82 638 b 117 729 100 661 111 693 b 4 768 68 724 13 738 b 4 853 -1 793 -1 828 b 192 853 18 907 178 908 m 447 853 b 453 811 450 840 453 825 l 453 811 b 415 638 453 736 439 681 l 338 638 b 372 729 356 661 367 693 b 260 768 324 724 268 738 b 260 853 254 793 254 828 b 447 853 274 907 433 908 "},"•":{"ha":360,"x_min":0,"x_max":0,"o":"m 217 444 b 218 340 224 414 224 372 b 6 339 201 269 21 272 b 6 446 -1 371 -1 414 b 217 444 21 514 201 514 "},"–":{"ha":663,"x_min":0,"x_max":0,"o":"m 525 346 l 0 346 l 0 439 l 525 439 "},"—":{"ha":851,"x_min":0,"x_max":0,"o":"m 719 346 l 0 346 l 0 439 l 719 439 "},"œ":{"ha":1444,"x_min":0,"x_max":0,"o":"m 746 260 b 754 171 747 229 749 199 b 953 49 768 90 861 49 b 1221 147 1067 49 1181 81 l 1289 108 b 960 -10 1239 29 1099 -10 b 660 61 844 -10 729 13 b 18 142 492 -57 61 -26 b 18 463 -6 236 -6 367 b 660 543 61 633 492 661 b 951 615 728 590 839 615 b 1306 460 1114 615 1281 564 b 1322 322 1315 418 1322 371 l 1322 260 l 746 260 m 568 431 b 172 432 539 599 201 597 b 172 171 160 354 160 249 b 569 176 201 10 540 4 b 568 431 582 253 582 354 m 1160 322 b 1150 431 1160 360 1156 397 b 951 556 1135 514 1043 556 b 754 432 861 556 768 514 b 744 322 749 399 746 361 l 1160 322 "},"¡":{"ha":311,"x_min":0,"x_max":0,"o":"m 6 726 b 6 808 -1 750 -1 785 b 193 811 18 865 179 864 b 193 725 199 785 199 751 b 6 726 179 671 19 671 m 18 1 l 18 644 l 181 644 l 181 -19 "},"¢":{"ha":821,"x_min":0,"x_max":0,"o":"m 707 111 b 408 -7 660 38 538 0 l 408 -87 l 346 -87 l 346 -7 b 18 144 192 -1 43 50 b 18 465 -6 239 -6 369 b 346 618 43 561 192 613 l 346 704 l 408 704 l 408 617 b 690 521 524 611 635 579 l 626 478 b 408 558 583 525 499 553 l 408 53 b 639 150 510 58 603 90 l 707 111 m 346 558 b 172 435 264 551 186 510 b 172 174 160 357 160 251 b 346 53 186 100 264 60 l 346 558 "},"£":{"ha":681,"x_min":0,"x_max":0,"o":"m 103 865 l 265 844 l 265 542 l 421 542 l 407 481 l 265 481 l 265 399 l 411 399 l 397 338 l 265 338 l 265 58 l 571 58 l 571 0 l 265 0 l 103 0 l 103 14 l 103 26 l 103 40 l 103 54 l 103 58 l 103 338 l 0 338 l 15 399 l 103 399 l 103 481 l 10 481 l 25 542 l 103 542 l 103 865 "},"¤":{"ha":579,"x_min":0,"x_max":0,"o":"m 436 239 l 371 174 l 300 244 b 136 244 250 229 186 231 l 65 174 l 0 239 l 60 300 b 57 311 58 303 58 307 b 57 474 46 358 46 425 b 61 485 57 478 58 481 l 0 544 l 65 610 l 136 540 b 300 540 186 554 250 556 l 371 610 l 436 544 l 375 485 b 379 472 378 481 379 476 b 381 314 390 425 390 361 b 375 300 379 308 378 304 l 436 239 m 293 429 b 143 431 282 479 154 479 b 143 354 138 407 138 376 b 293 356 154 307 282 306 b 293 429 299 378 299 407 "},"¥":{"ha":851,"x_min":0,"x_max":0,"o":"m 188 865 l 406 488 l 653 865 l 728 865 l 446 436 l 446 313 l 574 313 l 558 251 l 446 251 l 446 169 l 564 169 l 549 108 l 446 108 l 446 0 l 283 0 l 283 108 l 151 108 l 167 169 l 283 169 l 283 251 l 163 251 l 176 313 l 283 313 l 283 374 l 0 865 l 188 865 "},"|":{"ha":197,"x_min":0,"x_max":0,"o":"m 0 967 l 61 967 l 61 -87 l 0 -87 l 0 967 "},"¦":{"ha":197,"x_min":0,"x_max":0,"o":"m 61 967 l 61 542 l 0 542 l 0 967 m 0 -87 l 0 325 l 61 325 l 61 -87 "},"÷":{"ha":658,"x_min":0,"x_max":0,"o":"m 525 439 l 525 346 l 0 346 l 0 439 l 525 439 m 340 238 b 340 168 344 217 344 189 b 185 167 328 122 196 124 b 185 238 179 188 179 217 b 340 238 196 282 328 282 m 340 617 b 340 549 344 596 344 568 b 185 547 328 501 196 503 b 185 617 179 568 179 596 b 340 617 196 663 328 663 "},"×":{"ha":557,"x_min":0,"x_max":0,"o":"m 436 239 l 371 174 l 218 326 l 65 174 l 0 239 l 153 392 l 0 544 l 65 610 l 218 457 l 371 610 l 436 544 l 283 392 l 436 239 "},"Æ":{"ha":1272,"x_min":0,"x_max":0,"o":"m 1118 821 l 892 821 b 704 796 811 821 751 813 l 704 511 l 1018 511 l 1018 451 l 704 451 l 704 299 b 714 168 704 253 708 207 b 913 46 728 88 822 46 b 1114 86 986 46 1060 58 l 1158 33 b 913 -14 1092 1 1001 -14 b 560 138 749 -14 586 38 b 542 299 547 186 542 242 l 542 307 l 538 307 l 538 357 l 163 357 l 163 0 l 0 0 l 0 772 b 599 821 99 899 439 911 b 885 881 669 863 775 881 l 1118 881 m 538 579 b 526 699 536 621 533 663 b 329 821 513 779 421 821 b 163 796 271 821 211 813 l 163 418 l 538 418 l 538 579 "},"æ":{"ha":1449,"x_min":0,"x_max":0,"o":"m 743 260 b 751 171 744 229 746 199 b 950 49 765 90 858 49 b 1218 147 1064 49 1178 81 l 1286 108 b 957 -10 1236 29 1096 -10 b 740 21 879 -10 803 0 l 740 0 l 578 21 b 371 -10 518 0 444 -10 b 18 142 207 -10 44 42 b 0 301 6 189 0 244 b 18 463 0 357 6 414 b 369 615 43 564 206 615 b 660 544 481 615 592 592 b 949 615 726 592 838 615 b 1303 460 1111 615 1278 564 b 1319 322 1313 418 1319 371 l 1319 260 l 743 260 m 578 304 b 568 431 578 349 575 393 b 369 556 553 514 463 556 b 172 432 279 556 186 514 b 163 301 165 393 163 347 b 172 171 163 256 165 210 b 371 49 186 90 279 49 b 578 93 447 49 524 63 m 1157 322 b 1147 431 1157 360 1153 397 b 949 556 1132 514 1040 556 b 751 432 858 556 765 514 b 742 322 746 399 743 361 l 1157 322 "},"−":{"ha":1157,"x_min":0,"x_max":0,"o":""},"¿":{"ha":813,"x_min":0,"x_max":0,"o":"m 204 333 b 171 229 182 300 171 264 b 372 53 171 138 246 53 b 622 128 472 53 572 76 l 685 83 b 375 -6 621 24 497 -6 b 0 254 132 -6 0 115 b 104 461 0 324 33 397 b 310 572 163 514 238 544 l 310 676 l 472 676 l 472 481 b 204 333 371 440 264 418 m 297 758 b 292 800 294 771 292 785 b 392 883 292 858 319 883 b 489 800 467 883 489 858 b 392 717 489 742 465 717 b 297 758 349 717 304 731 "},"à":{"ha":865,"x_min":0,"x_max":0,"o":"m 740 0 l 578 21 b 371 -10 518 0 444 -10 b 18 142 207 -10 44 42 b 0 301 6 189 0 244 b 18 463 0 357 6 414 b 369 615 43 564 206 615 b 724 460 533 615 697 564 b 740 314 735 417 740 365 m 578 304 b 568 431 578 349 575 393 b 369 556 553 514 463 556 b 172 432 279 556 186 514 b 163 301 165 393 163 347 b 172 171 163 256 165 210 b 371 49 186 90 279 49 b 578 93 447 49 524 63 m 218 871 l 332 871 l 438 676 l 324 676 "},"´":{"ha":346,"x_min":0,"x_max":0,"o":"m 114 676 l 0 676 l 106 871 l 219 871 l 114 676 "},"`":{"ha":363,"x_min":0,"x_max":0,"o":"m 0 871 l 114 871 l 219 676 l 106 676 "},"ˆ":{"ha":596,"x_min":0,"x_max":0,"o":"m 110 704 l 0 704 l 174 843 l 193 843 l 229 843 l 267 843 l 439 704 l 331 704 l 300 729 l 219 793 l 140 729 l 110 704 "},"˜":{"ha":671,"x_min":0,"x_max":0,"o":"m 42 743 l 0 806 b 485 804 161 901 351 717 l 522 742 b 42 743 361 646 175 829 "},"¨":{"ha":1157,"x_min":0,"x_max":0,"o":"m 161 808 b 161 739 167 788 167 760 b 4 738 150 692 15 693 b 4 808 -1 758 -1 788 b 161 808 15 854 150 854 m 460 808 b 460 739 465 788 465 760 b 303 738 449 692 314 693 b 303 808 297 758 297 788 b 460 808 314 854 449 854 "},"è":{"ha":865,"x_min":0,"x_max":0,"o":"m 164 260 b 172 171 165 229 167 199 b 371 49 186 90 279 49 b 639 147 485 49 599 81 l 707 108 b 378 -10 657 29 517 -10 b 18 142 211 -10 44 39 b 0 301 6 189 0 244 b 18 463 0 357 6 414 b 369 615 43 564 206 615 b 724 460 532 615 699 564 b 740 322 733 418 740 371 l 740 260 l 164 260 m 578 322 b 568 431 578 360 574 397 b 369 556 553 514 461 556 b 172 432 279 556 186 514 b 163 322 167 399 164 361 l 578 322 m 218 871 l 332 871 l 438 676 l 324 676 "},"ì":{"ha":318,"x_min":0,"x_max":0,"o":"m 186 0 l 24 0 l 24 599 l 186 576 l 186 0 m -53 871 l 61 871 l 167 676 l 53 676 "},"ò":{"ha":874,"x_min":0,"x_max":0,"o":"m 724 460 b 724 147 746 367 747 242 b 18 142 672 -65 69 -58 b 18 463 -6 236 -6 367 b 724 460 69 667 672 667 m 568 431 b 172 432 539 599 201 597 b 172 171 160 354 160 249 b 569 176 201 10 540 4 b 568 431 582 253 582 354 m 213 871 l 326 871 l 432 676 l 318 676 "},"ù":{"ha":878,"x_min":0,"x_max":0,"o":"m 582 588 l 744 588 l 744 13 l 744 3 l 589 24 b 374 -10 526 0 450 -10 b 22 142 211 -10 47 42 b 3 301 10 189 3 244 l 3 597 l 165 576 l 165 301 b 176 171 167 256 169 210 b 374 49 190 90 282 49 b 582 93 450 49 528 63 l 582 363 m 213 871 l 326 871 l 432 676 l 318 676 "},"á":{"ha":865,"x_min":0,"x_max":0,"o":"m 740 0 l 578 21 b 371 -10 518 0 444 -10 b 18 142 207 -10 44 42 b 0 301 6 189 0 244 b 18 463 0 357 6 414 b 369 615 43 564 206 615 b 724 460 533 615 697 564 b 740 314 735 417 740 365 m 578 304 b 568 431 578 349 575 393 b 369 556 553 514 463 556 b 172 432 279 556 186 514 b 163 301 165 393 163 347 b 172 171 163 256 165 210 b 371 49 186 90 279 49 b 578 93 447 49 524 63 m 436 676 l 322 676 l 428 871 l 542 871 l 436 676 "},"é":{"ha":865,"x_min":0,"x_max":0,"o":"m 164 260 b 172 171 165 229 167 199 b 371 49 186 90 279 49 b 639 147 485 49 599 81 l 707 108 b 378 -10 657 29 517 -10 b 18 142 211 -10 44 39 b 0 301 6 189 0 244 b 18 463 0 357 6 414 b 369 615 43 564 206 615 b 724 460 532 615 699 564 b 740 322 733 418 740 371 l 740 260 l 164 260 m 578 322 b 568 431 578 360 574 397 b 369 556 553 514 461 556 b 172 432 279 556 186 514 b 163 322 167 399 164 361 l 578 322 m 436 676 l 322 676 l 428 871 l 542 871 l 436 676 "},"í":{"ha":299,"x_min":0,"x_max":0,"o":"m 4 0 l 4 599 l 167 576 l 167 0 m 35 676 l 140 871 l 254 871 l 149 676 "},"ó":{"ha":874,"x_min":0,"x_max":0,"o":"m 724 460 b 724 147 746 367 747 242 b 18 142 672 -65 69 -58 b 18 463 -6 236 -6 367 b 724 460 69 667 672 667 m 568 431 b 172 432 539 599 201 597 b 172 171 160 354 160 249 b 569 176 201 10 540 4 b 568 431 582 253 582 354 m 433 676 l 319 676 l 425 871 l 539 871 l 433 676 "},"ú":{"ha":878,"x_min":0,"x_max":0,"o":"m 582 588 l 744 588 l 744 13 l 744 3 l 589 24 b 374 -10 526 0 450 -10 b 22 142 211 -10 47 42 b 3 301 10 189 3 244 l 3 597 l 165 576 l 165 301 b 176 171 167 256 169 210 b 374 49 190 90 282 49 b 582 93 450 49 528 63 l 582 363 m 432 676 l 318 676 l 424 871 l 538 871 l 432 676 "},"ý":{"ha":711,"x_min":0,"x_max":0,"o":"m 582 588 l 339 -160 l 289 -312 l 225 -312 l 326 0 l 192 0 l 0 588 l 171 588 l 344 56 l 517 588 l 582 588 m 368 676 l 254 676 l 360 871 l 474 871 l 368 676 "},"â":{"ha":865,"x_min":0,"x_max":0,"o":"m 740 0 l 578 21 b 371 -10 518 0 444 -10 b 18 142 207 -10 44 42 b 0 301 6 189 0 244 b 18 463 0 357 6 414 b 369 615 43 564 206 615 b 724 460 533 615 697 564 b 740 314 735 417 740 365 m 578 304 b 568 431 578 349 575 393 b 369 556 553 514 463 556 b 172 432 279 556 186 514 b 163 301 165 393 163 347 b 172 171 163 256 165 210 b 371 49 186 90 279 49 b 578 93 447 49 524 63 m 267 704 l 157 704 l 331 843 l 350 843 l 386 843 l 424 843 l 596 704 l 488 704 l 457 729 l 376 793 l 297 729 l 267 704 "},"ê":{"ha":865,"x_min":0,"x_max":0,"o":"m 164 260 b 172 171 165 229 167 199 b 371 49 186 90 279 49 b 639 147 485 49 599 81 l 707 108 b 378 -10 657 29 517 -10 b 18 142 211 -10 44 39 b 0 301 6 189 0 244 b 18 463 0 357 6 414 b 369 615 43 564 206 615 b 724 460 532 615 699 564 b 740 322 733 418 740 371 l 740 260 l 164 260 m 578 322 b 568 431 578 360 574 397 b 369 556 553 514 461 556 b 172 432 279 556 186 514 b 163 322 167 399 164 361 l 578 322 m 264 704 l 154 704 l 328 843 l 347 843 l 383 843 l 421 843 l 593 704 l 485 704 l 454 729 l 374 793 l 294 729 l 264 704 "},"î":{"ha":457,"x_min":0,"x_max":0,"o":"m 246 0 l 83 0 l 83 599 l 246 576 l 246 0 m 60 704 l -50 704 l 124 843 l 143 843 l 179 843 l 217 843 l 389 704 l 281 704 l 250 729 l 169 793 l 90 729 l 60 704 "},"ô":{"ha":874,"x_min":0,"x_max":0,"o":"m 724 460 b 724 147 746 367 747 242 b 18 142 672 -65 69 -58 b 18 463 -6 236 -6 367 b 724 460 69 667 672 667 m 568 431 b 172 432 539 599 201 597 b 172 171 160 354 160 249 b 569 176 201 10 540 4 b 568 431 582 253 582 354 m 261 704 l 151 704 l 325 843 l 344 843 l 381 843 l 418 843 l 590 704 l 482 704 l 451 729 l 371 793 l 292 729 l 261 704 "},"û":{"ha":878,"x_min":0,"x_max":0,"o":"m 582 588 l 744 588 l 744 13 l 744 3 l 589 24 b 374 -10 526 0 450 -10 b 22 142 211 -10 47 42 b 3 301 10 189 3 244 l 3 597 l 165 576 l 165 301 b 176 171 167 256 169 210 b 374 49 190 90 282 49 b 582 93 450 49 528 63 l 582 363 m 269 704 l 160 704 l 333 843 l 353 843 l 389 843 l 426 843 l 599 704 l 490 704 l 460 729 l 379 793 l 300 729 l 269 704 "},"ã":{"ha":865,"x_min":0,"x_max":0,"o":"m 740 0 l 578 21 b 371 -10 518 0 444 -10 b 18 142 207 -10 44 42 b 0 301 6 189 0 244 b 18 463 0 357 6 414 b 369 615 43 564 206 615 b 724 460 533 615 697 564 b 740 314 735 417 740 365 m 578 304 b 568 431 578 349 575 393 b 369 556 553 514 463 556 b 172 432 279 556 186 514 b 163 301 165 393 163 347 b 172 171 163 256 165 210 b 371 49 186 90 279 49 b 578 93 447 49 524 63 m 157 743 l 115 806 b 600 804 276 901 467 717 l 638 742 b 157 743 476 646 290 829 "},"õ":{"ha":874,"x_min":0,"x_max":0,"o":"m 724 460 b 724 147 746 367 747 242 b 18 142 672 -65 69 -58 b 18 463 -6 236 -6 367 b 724 460 69 667 672 667 m 568 431 b 172 432 539 599 201 597 b 172 171 160 354 160 249 b 569 176 201 10 540 4 b 568 431 582 253 582 354 m 149 743 l 107 806 b 592 804 268 901 458 717 l 629 742 b 149 743 468 646 282 829 "},"ñ":{"ha":869,"x_min":0,"x_max":0,"o":"m 163 0 l 0 0 l 0 589 l 138 571 b 371 611 203 599 286 611 b 722 460 533 611 697 560 b 740 300 735 413 740 356 l 740 0 l 578 0 l 578 300 b 568 429 578 346 575 392 b 371 553 554 510 463 553 b 163 508 293 553 217 538 l 163 238 m 146 743 l 104 806 b 589 804 265 901 456 717 l 626 742 b 146 743 465 646 279 829 "},"ä":{"ha":865,"x_min":0,"x_max":0,"o":"m 740 0 l 578 21 b 371 -10 518 0 444 -10 b 18 142 207 -10 44 42 b 0 301 6 189 0 244 b 18 463 0 357 6 414 b 369 615 43 564 206 615 b 724 460 533 615 697 564 b 740 314 735 417 740 365 m 578 304 b 568 431 578 349 575 393 b 369 556 553 514 463 556 b 172 432 279 556 186 514 b 163 301 165 393 163 347 b 172 171 163 256 165 210 b 371 49 186 90 279 49 b 578 93 447 49 524 63 m 300 808 b 300 739 306 788 306 760 b 143 738 289 692 154 693 b 143 808 138 758 138 788 b 300 808 154 854 289 854 m 599 808 b 599 739 604 788 604 760 b 442 738 588 692 453 693 b 442 808 436 758 436 788 b 599 808 453 854 588 854 "},"ë":{"ha":865,"x_min":0,"x_max":0,"o":"m 164 260 b 172 171 165 229 167 199 b 371 49 186 90 279 49 b 639 147 485 49 599 81 l 707 108 b 378 -10 657 29 517 -10 b 18 142 211 -10 44 39 b 0 301 6 189 0 244 b 18 463 0 357 6 414 b 369 615 43 564 206 615 b 724 460 532 615 699 564 b 740 322 733 418 740 371 l 740 260 l 164 260 m 578 322 b 568 431 578 360 574 397 b 369 556 553 514 461 556 b 172 432 279 556 186 514 b 163 322 167 399 164 361 l 578 322 m 300 808 b 300 739 306 788 306 760 b 143 738 289 692 154 693 b 143 808 138 758 138 788 b 300 808 154 854 289 854 m 599 808 b 599 739 604 788 604 760 b 442 738 588 692 453 693 b 442 808 436 758 436 788 b 599 808 453 854 588 854 "},"ï":{"ha":536,"x_min":0,"x_max":0,"o":"m 286 0 l 124 0 l 124 599 l 286 576 l 286 0 m 136 808 b 136 739 142 788 142 760 b -21 738 125 692 -10 693 b -21 808 -26 758 -26 788 b 136 808 -10 854 125 854 m 435 808 b 435 739 440 788 440 760 b 278 738 424 692 289 693 b 278 808 272 758 272 788 b 435 808 289 854 424 854 "},"ö":{"ha":874,"x_min":0,"x_max":0,"o":"m 724 460 b 724 147 746 367 747 242 b 18 142 672 -65 69 -58 b 18 463 -6 236 -6 367 b 724 460 69 667 672 667 m 568 431 b 172 432 539 599 201 597 b 172 171 160 354 160 249 b 569 176 201 10 540 4 b 568 431 582 253 582 354 m 296 808 b 296 739 301 788 301 760 b 139 738 285 692 150 693 b 139 808 133 758 133 788 b 296 808 150 854 285 854 m 594 808 b 594 739 600 788 600 760 b 438 738 583 692 449 693 b 438 808 432 758 432 788 b 594 808 449 854 583 854 "},"ü":{"ha":878,"x_min":0,"x_max":0,"o":"m 582 588 l 744 588 l 744 13 l 744 3 l 589 24 b 374 -10 526 0 450 -10 b 22 142 211 -10 47 42 b 3 301 10 189 3 244 l 3 597 l 165 576 l 165 301 b 176 171 167 256 169 210 b 374 49 190 90 282 49 b 582 93 450 49 528 63 l 582 363 m 301 808 b 301 739 307 788 307 760 b 144 738 290 692 156 693 b 144 808 139 758 139 788 b 301 808 156 854 290 854 m 600 808 b 600 739 606 788 606 760 b 443 738 589 692 454 693 b 443 808 438 758 438 788 b 600 808 454 854 589 854 "},"ÿ":{"ha":711,"x_min":0,"x_max":0,"o":"m 582 588 l 339 -160 l 289 -312 l 225 -312 l 326 0 l 192 0 l 0 588 l 171 588 l 344 56 l 517 588 l 582 588 m 232 808 b 232 739 238 788 238 760 b 75 738 221 692 86 693 b 75 808 69 758 69 788 b 232 808 86 854 221 854 m 531 808 b 531 739 536 788 536 760 b 374 738 519 692 385 693 b 374 808 368 758 368 788 b 531 808 385 854 519 854 "},"À":{"ha":832,"x_min":0,"x_max":0,"o":"m 538 0 l 538 357 l 163 357 l 163 0 l 0 0 l 0 757 l 0 757 l 0 757 l 0 772 b 681 729 125 932 635 911 b 700 579 693 685 699 632 l 700 579 l 700 568 l 700 538 l 700 0 m 538 579 b 526 699 536 621 533 663 b 329 821 513 779 421 821 b 163 796 271 821 211 813 l 163 418 l 538 418 l 538 538 l 538 538 l 538 579 m 194 1149 l 308 1149 l 414 954 l 300 954 "},"È":{"ha":711,"x_min":0,"x_max":0,"o":"m 576 881 l 576 821 l 369 821 b 350 821 363 821 356 821 b 163 796 269 821 210 813 l 163 511 l 476 511 l 476 451 l 163 451 l 163 299 b 172 168 163 253 167 207 b 371 46 186 88 281 46 b 572 86 444 46 518 58 l 617 33 b 371 -14 550 1 460 -14 b 18 138 207 -14 44 38 b 0 299 6 186 0 242 l 0 772 b 343 881 60 849 197 881 b 369 881 351 881 361 881 m 167 1149 l 281 1149 l 386 954 l 272 954 "},"Ì":{"ha":292,"x_min":0,"x_max":0,"o":"m 0 875 l 163 854 b 163 0 163 569 163 285 l 0 0 b 0 875 0 292 0 583 m -76 1149 l 38 1149 l 143 954 l 29 954 "},"Ò":{"ha":953,"x_min":0,"x_max":0,"o":"m 803 146 b 21 146 751 -67 72 -67 b 21 721 -7 256 -7 610 b 803 721 72 933 751 933 b 803 146 829 610 829 256 m 175 174 b 647 174 204 0 618 0 b 647 692 667 286 667 581 b 175 692 618 867 204 867 b 175 174 157 581 157 286 m 256 1149 l 369 1149 l 475 954 l 361 954 "},"Ù":{"ha":961,"x_min":0,"x_max":0,"o":"m 804 146 b 413 -14 778 39 596 -14 b 22 146 231 -14 49 39 b 0 549 4 221 0 399 b 1 875 0 658 1 767 l 164 854 b 161 531 164 747 161 639 b 176 174 161 404 164 250 b 413 43 190 86 303 43 b 649 174 524 43 633 86 b 665 579 663 256 665 432 b 664 875 665 678 664 779 l 826 854 b 826 596 826 769 826 682 b 804 146 826 428 824 229 m 260 1149 l 374 1149 l 479 954 l 365 954 "},"Á":{"ha":832,"x_min":0,"x_max":0,"o":"m 538 0 l 538 357 l 163 357 l 163 0 l 0 0 l 0 757 l 0 757 l 0 757 l 0 772 b 681 729 125 932 635 911 b 700 579 693 685 699 632 l 700 579 l 700 568 l 700 538 l 700 0 m 538 579 b 526 699 536 621 533 663 b 329 821 513 779 421 821 b 163 796 271 821 211 813 l 163 418 l 538 418 l 538 538 l 538 538 l 538 579 m 392 954 l 278 954 l 383 1149 l 497 1149 l 392 954 "},"É":{"ha":711,"x_min":0,"x_max":0,"o":"m 576 881 l 576 821 l 369 821 b 350 821 363 821 356 821 b 163 796 269 821 210 813 l 163 511 l 476 511 l 476 451 l 163 451 l 163 299 b 172 168 163 253 167 207 b 371 46 186 88 281 46 b 572 86 444 46 518 58 l 617 33 b 371 -14 550 1 460 -14 b 18 138 207 -14 44 38 b 0 299 6 186 0 242 l 0 772 b 343 881 60 849 197 881 b 369 881 351 881 361 881 m 360 954 l 246 954 l 351 1149 l 465 1149 l 360 954 "},"Í":{"ha":292,"x_min":0,"x_max":0,"o":"m 0 875 l 163 854 b 163 0 163 569 163 285 l 0 0 b 0 875 0 292 0 583 m 138 954 l 24 954 l 129 1149 l 243 1149 l 138 954 "},"Ó":{"ha":953,"x_min":0,"x_max":0,"o":"m 803 146 b 21 146 751 -67 72 -67 b 21 721 -7 256 -7 610 b 803 721 72 933 751 933 b 803 146 829 610 829 256 m 175 174 b 647 174 204 0 618 0 b 647 692 667 286 667 581 b 175 692 618 867 204 867 b 175 174 157 581 157 286 m 453 954 l 339 954 l 444 1149 l 558 1149 l 453 954 "},"Ú":{"ha":961,"x_min":0,"x_max":0,"o":"m 804 146 b 413 -14 778 39 596 -14 b 22 146 231 -14 49 39 b 0 549 4 221 0 399 b 1 875 0 658 1 767 l 164 854 b 161 531 164 747 161 639 b 176 174 161 404 164 250 b 413 43 190 86 303 43 b 649 174 524 43 633 86 b 665 579 663 256 665 432 b 664 875 665 678 664 779 l 826 854 b 826 596 826 769 826 682 b 804 146 826 428 824 229 m 457 954 l 343 954 l 449 1149 l 563 1149 l 457 954 "},"Ý":{"ha":851,"x_min":0,"x_max":0,"o":"m 188 865 l 406 488 l 653 865 l 728 865 l 446 436 b 446 0 446 290 446 146 l 283 0 b 283 374 283 125 283 249 l 0 865 l 188 865 m 429 954 l 315 954 l 421 1149 l 535 1149 l 429 954 "},"Â":{"ha":832,"x_min":0,"x_max":0,"o":"m 538 0 l 538 357 l 163 357 l 163 0 l 0 0 l 0 757 l 0 757 l 0 757 l 0 772 b 681 729 125 932 635 911 b 700 579 693 685 699 632 l 700 579 l 700 568 l 700 538 l 700 0 m 538 579 b 526 699 536 621 533 663 b 329 821 513 779 421 821 b 163 796 271 821 211 813 l 163 418 l 538 418 l 538 538 l 538 538 l 538 579 m 236 982 l 126 982 l 300 1121 l 319 1121 l 356 1121 l 393 1121 l 565 982 l 457 982 l 426 1007 l 346 1071 l 267 1007 l 236 982 "},"Ê":{"ha":711,"x_min":0,"x_max":0,"o":"m 576 881 l 576 821 l 369 821 b 350 821 363 821 356 821 b 163 796 269 821 210 813 l 163 511 l 476 511 l 476 451 l 163 451 l 163 299 b 172 168 163 253 167 207 b 371 46 186 88 281 46 b 572 86 444 46 518 58 l 617 33 b 371 -14 550 1 460 -14 b 18 138 207 -14 44 38 b 0 299 6 186 0 242 l 0 772 b 343 881 60 849 197 881 b 369 881 351 881 361 881 m 204 982 l 94 982 l 268 1121 l 288 1121 l 324 1121 l 361 1121 l 533 982 l 425 982 l 394 1007 l 314 1071 l 235 1007 l 204 982 "},"Î":{"ha":292,"x_min":0,"x_max":0,"o":"m 0 875 l 163 854 b 163 0 163 569 163 285 l 0 0 b 0 875 0 292 0 583 m -33 982 l -143 982 l 31 1121 l 50 1121 l 86 1121 l 124 1121 l 296 982 l 188 982 l 157 1007 l 76 1071 l -3 1007 l -33 982 "},"Ô":{"ha":953,"x_min":0,"x_max":0,"o":"m 803 146 b 21 146 751 -67 72 -67 b 21 721 -7 256 -7 610 b 803 721 72 933 751 933 b 803 146 829 610 829 256 m 175 174 b 647 174 204 0 618 0 b 647 692 667 286 667 581 b 175 692 618 867 204 867 b 175 174 157 581 157 286 m 297 982 l 188 982 l 361 1121 l 381 1121 l 417 1121 l 454 1121 l 626 982 l 518 982 l 488 1007 l 407 1071 l 328 1007 l 297 982 "},"Û":{"ha":961,"x_min":0,"x_max":0,"o":"m 804 146 b 413 -14 778 39 596 -14 b 22 146 231 -14 49 39 b 0 549 4 221 0 399 b 1 875 0 658 1 767 l 164 854 b 161 531 164 747 161 639 b 176 174 161 404 164 250 b 413 43 190 86 303 43 b 649 174 524 43 633 86 b 665 579 663 256 665 432 b 664 875 665 678 664 779 l 826 854 b 826 596 826 769 826 682 b 804 146 826 428 824 229 m 301 982 l 192 982 l 365 1121 l 385 1121 l 421 1121 l 458 1121 l 631 982 l 522 982 l 492 1007 l 411 1071 l 332 1007 l 301 982 "},"Ã":{"ha":832,"x_min":0,"x_max":0,"o":"m 538 0 l 538 357 l 163 357 l 163 0 l 0 0 l 0 757 l 0 757 l 0 757 l 0 772 b 681 729 125 932 635 911 b 700 579 693 685 699 632 l 700 579 l 700 568 l 700 538 l 700 0 m 538 579 b 526 699 536 621 533 663 b 329 821 513 779 421 821 b 163 796 271 821 211 813 l 163 418 l 538 418 l 538 538 l 538 538 l 538 579 m 126 1021 l 85 1083 b 569 1082 246 1179 436 994 l 607 1019 b 126 1021 446 924 260 1107 "},"Ë":{"ha":711,"x_min":0,"x_max":0,"o":"m 576 881 l 576 821 l 369 821 b 350 821 363 821 356 821 b 163 796 269 821 210 813 l 163 511 l 476 511 l 476 451 l 163 451 l 163 299 b 172 168 163 253 167 207 b 371 46 186 88 281 46 b 572 86 444 46 518 58 l 617 33 b 371 -14 550 1 460 -14 b 18 138 207 -14 44 38 b 0 299 6 186 0 242 l 0 772 b 343 881 60 849 197 881 b 369 881 351 881 361 881 m 243 1086 b 243 1017 249 1065 249 1038 b 86 1015 232 969 97 971 b 86 1086 81 1036 81 1065 b 243 1086 97 1132 232 1132 m 542 1086 b 542 1017 547 1065 547 1038 b 385 1015 531 969 396 971 b 385 1086 379 1036 379 1065 b 542 1086 396 1132 531 1132 "},"Õ":{"ha":953,"x_min":0,"x_max":0,"o":"m 803 146 b 21 146 751 -67 72 -67 b 21 721 -7 256 -7 610 b 803 721 72 933 751 933 b 803 146 829 610 829 256 m 175 174 b 647 174 204 0 618 0 b 647 692 667 286 667 581 b 175 692 618 867 204 867 b 175 174 157 581 157 286 m 194 1021 l 153 1083 b 638 1082 314 1179 504 994 l 675 1019 b 194 1021 514 924 328 1107 "},"Ñ":{"ha":829,"x_min":0,"x_max":0,"o":"m 694 875 b 694 0 694 588 694 289 l 622 0 l 163 639 l 163 22 l 163 0 l 0 0 l 0 865 l 72 865 b 532 226 225 651 378 439 l 532 854 l 694 875 m 122 1021 l 81 1083 b 565 1082 242 1179 432 994 l 603 1019 b 122 1021 442 924 256 1107 "},"Ö":{"ha":953,"x_min":0,"x_max":0,"o":"m 803 146 b 21 146 751 -67 72 -67 b 21 721 -7 256 -7 610 b 803 721 72 933 751 933 b 803 146 829 610 829 256 m 175 174 b 647 174 204 0 618 0 b 647 692 667 286 667 581 b 175 692 618 867 204 867 b 175 174 157 581 157 286 m 336 1086 b 336 1017 342 1065 342 1038 b 179 1015 325 969 190 971 b 179 1086 174 1036 174 1065 b 336 1086 190 1132 325 1132 m 635 1086 b 635 1017 640 1065 640 1038 b 478 1015 624 969 489 971 b 478 1086 472 1036 472 1065 b 635 1086 489 1132 624 1132 "},"Ä":{"ha":832,"x_min":0,"x_max":0,"o":"m 538 0 l 538 357 l 163 357 l 163 0 l 0 0 l 0 757 l 0 757 l 0 757 l 0 772 b 681 729 125 932 635 911 b 700 579 693 685 699 632 l 700 579 l 700 568 l 700 538 l 700 0 m 538 579 b 526 699 536 621 533 663 b 329 821 513 779 421 821 b 163 796 271 821 211 813 l 163 418 l 538 418 l 538 538 l 538 538 l 538 579 m 275 1086 b 275 1017 281 1065 281 1038 b 118 1015 264 969 129 971 b 118 1086 113 1036 113 1065 b 275 1086 129 1132 264 1132 m 574 1086 b 574 1017 579 1065 579 1038 b 417 1015 563 969 428 971 b 417 1086 411 1036 411 1065 b 574 1086 428 1132 563 1132 "},"Ï":{"ha":292,"x_min":0,"x_max":0,"o":"m 0 875 l 163 854 b 163 0 163 569 163 285 l 0 0 b 0 875 0 292 0 583 m 6 1086 b 6 1017 11 1065 11 1038 b -151 1015 -6 969 -140 971 b -151 1086 -157 1036 -157 1065 b 6 1086 -140 1132 -6 1132 m 304 1086 b 304 1017 310 1065 310 1038 b 147 1015 293 969 158 971 b 147 1086 142 1036 142 1065 b 304 1086 158 1132 293 1132 "},"Ü":{"ha":961,"x_min":0,"x_max":0,"o":"m 804 146 b 413 -14 778 39 596 -14 b 22 146 231 -14 49 39 b 0 549 4 221 0 399 b 1 875 0 658 1 767 l 164 854 b 161 531 164 747 161 639 b 176 174 161 404 164 250 b 413 43 190 86 303 43 b 649 174 524 43 633 86 b 665 579 663 256 665 432 b 664 875 665 678 664 779 l 826 854 b 826 596 826 769 826 682 b 804 146 826 428 824 229 m 340 1086 b 340 1017 346 1065 346 1038 b 183 1015 329 969 194 971 b 183 1086 178 1036 178 1065 b 340 1086 194 1132 329 1132 m 639 1086 b 639 1017 644 1065 644 1038 b 482 1015 628 969 493 971 b 482 1086 476 1036 476 1065 b 639 1086 493 1132 628 1132 "},"Ø":{"ha":953,"x_min":0,"x_max":0,"o":"m 629 967 l 590 861 b 803 721 700 838 786 790 b 803 146 829 610 829 256 b 279 -3 771 13 494 -36 l 249 -87 l 183 -87 l 218 8 b 21 146 115 33 36 78 b 21 721 -7 256 -7 610 b 529 872 51 850 317 900 l 564 967 m 647 692 b 565 790 639 735 608 768 l 301 58 b 647 174 435 18 628 57 b 647 692 667 286 667 581 m 175 174 b 244 82 181 135 207 104 l 507 811 b 175 692 375 844 193 806 b 175 174 157 581 157 286 "},"ø":{"ha":874,"x_min":0,"x_max":0,"o":"m 724 460 b 724 147 746 367 747 242 b 279 -4 693 21 468 -28 l 250 -87 l 185 -87 l 218 6 b 18 142 117 28 35 74 b 18 463 -6 236 -6 367 b 436 613 47 578 254 628 l 468 699 l 533 699 l 499 604 b 724 460 611 583 704 535 m 568 431 b 475 536 558 481 522 515 l 301 56 b 569 176 411 29 551 68 b 568 431 582 253 582 354 m 172 171 b 244 78 179 129 207 99 l 415 553 b 172 432 311 568 189 528 b 172 171 160 354 160 249 "},"%":{"ha":743,"x_min":0,"x_max":0,"o":"m 246 572 b 246 454 253 538 253 490 b 6 453 228 375 24 378 b 6 574 -3 488 -3 538 b 246 572 24 650 228 650 m 579 331 b 579 214 588 296 588 249 b 340 211 563 133 357 136 b 340 332 332 247 332 296 b 579 331 357 408 561 408 m 513 654 l 147 131 l 72 131 l 438 654 m 185 542 b 67 543 176 581 75 581 b 67 483 63 525 63 500 b 185 485 75 446 176 444 b 185 542 189 501 189 525 m 518 301 b 400 301 510 339 410 339 b 400 242 396 283 396 260 b 518 243 408 204 510 203 b 518 301 522 260 522 283 "},"˚":{"ha":385,"x_min":0,"x_max":0,"o":"m 246 836 b 246 718 253 801 253 754 b 6 717 228 639 24 642 b 6 838 -3 751 -3 801 b 246 836 24 914 228 914 m 185 806 b 67 807 176 844 75 844 b 67 747 63 789 63 764 b 185 749 75 710 176 708 b 185 806 189 765 189 789 "},"å":{"ha":865,"x_min":0,"x_max":0,"o":"m 740 0 l 578 21 b 371 -10 518 0 444 -10 b 18 142 207 -10 44 42 b 0 301 6 189 0 244 b 18 463 0 357 6 414 b 369 615 43 564 206 615 b 724 460 533 615 697 564 b 740 314 735 417 740 365 m 578 304 b 568 431 578 349 575 393 b 369 556 553 514 463 556 b 172 432 279 556 186 514 b 163 301 165 393 163 347 b 172 171 163 256 165 210 b 371 49 186 90 279 49 b 578 93 447 49 524 63 m 483 836 b 483 718 490 801 490 754 b 243 717 465 639 261 642 b 243 838 235 751 235 801 b 483 836 261 914 465 914 m 422 806 b 304 807 414 844 313 844 b 304 747 300 789 300 764 b 422 749 313 710 414 708 b 422 806 426 765 426 789 "},"Å":{"ha":832,"x_min":0,"x_max":0,"o":"m 538 0 l 538 357 l 163 357 l 163 0 l 0 0 l 0 757 l 0 757 l 0 757 l 0 772 b 681 729 125 932 635 911 b 700 579 693 685 699 632 l 700 579 l 700 568 l 700 538 l 700 0 m 538 579 b 526 699 536 621 533 663 b 329 821 513 779 421 821 b 163 796 271 821 211 813 l 163 418 l 538 418 l 538 538 l 538 538 l 538 579 m 464 1114 b 464 996 471 1079 471 1032 b 224 994 446 917 242 919 b 224 1115 215 1029 215 1079 b 464 1114 242 1192 446 1192 m 403 1083 b 285 1085 394 1122 293 1122 b 285 1025 281 1067 281 1042 b 403 1026 293 988 394 986 b 403 1083 407 1043 407 1067 "},"ˇ":{"ha":575,"x_min":0,"x_max":0,"o":"m 140 818 l 219 754 l 300 818 l 331 843 l 439 843 l 267 704 l 229 704 l 193 704 l 174 704 l 0 843 l 110 843 "},"ž":{"ha":650,"x_min":0,"x_max":0,"o":"m 21 526 l 21 588 l 339 588 l 458 588 l 528 588 l 224 61 l 513 61 l 513 0 l 188 0 l 188 0 l 0 0 l 304 526 l 21 526 m 203 818 l 282 754 l 363 818 l 393 843 l 501 843 l 329 704 l 292 704 l 256 704 l 236 704 l 63 843 l 172 843 "},"Ž":{"ha":807,"x_min":0,"x_max":0,"o":"m 465 807 l 32 807 l 32 865 b 688 865 244 865 475 865 l 222 58 l 664 58 l 664 0 b 0 0 442 0 221 0 l 465 807 m 268 1096 l 347 1032 l 428 1096 l 458 1121 l 567 1121 l 394 982 l 357 982 l 321 982 l 301 982 l 128 1121 l 238 1121 "},"Ÿ":{"ha":851,"x_min":0,"x_max":0,"o":"m 188 865 l 406 488 l 653 865 l 728 865 l 446 436 b 446 0 446 290 446 146 l 283 0 b 283 374 283 125 283 249 l 0 865 l 188 865 m 297 1086 b 297 1017 303 1065 303 1038 b 140 1015 286 969 151 971 b 140 1086 135 1036 135 1065 b 297 1086 151 1132 286 1132 m 596 1086 b 596 1017 601 1065 601 1038 b 439 1015 585 969 450 971 b 439 1086 433 1036 433 1065 b 596 1086 450 1132 585 1132 "},"Š":{"ha":817,"x_min":0,"x_max":0,"o":"m 68 143 b 336 44 108 76 222 44 b 540 185 463 44 540 111 b 340 365 540 250 481 321 b 10 658 133 431 10 519 b 372 881 14 819 200 881 b 682 790 494 881 618 849 l 619 746 b 371 821 569 797 469 821 b 168 689 244 821 168 760 b 364 514 168 626 228 556 b 696 221 528 463 696 392 b 336 -14 696 61 543 -14 b 0 104 193 -14 51 25 m 263 1096 l 342 1032 l 422 1096 l 453 1121 l 561 1121 l 389 982 l 351 982 l 315 982 l 296 982 l 122 1121 l 232 1121 "},"š":{"ha":636,"x_min":0,"x_max":0,"o":"m 440 29 b 0 44 331 -39 106 -32 l 54 81 b 72 72 57 79 68 75 b 335 86 142 38 281 15 b 344 181 354 111 368 153 b 36 333 293 238 111 242 b 108 576 -35 419 7 536 b 486 557 215 619 386 611 l 438 515 b 400 529 429 519 411 525 b 181 506 329 553 228 558 b 176 399 153 475 142 428 b 489 240 240 343 428 340 b 440 29 532 171 510 71 m 172 818 l 251 754 l 332 818 l 363 843 l 471 843 l 299 704 l 261 704 l 225 704 l 206 704 l 32 843 l 142 843 "},"ç":{"ha":821,"x_min":0,"x_max":0,"o":"m 707 114 b 428 -3 663 44 550 6 b 389 -174 428 -76 413 -131 l 311 -174 b 356 -4 343 -135 351 -71 b 18 146 197 -1 43 50 b 0 307 6 193 0 250 b 18 467 0 363 6 419 b 369 619 43 569 206 619 b 690 524 499 619 628 588 l 626 481 b 371 561 578 535 474 561 b 172 438 279 561 186 519 b 163 307 165 399 163 353 b 172 176 163 261 165 215 b 371 54 186 96 279 54 b 639 153 485 54 599 86 "},"Ç":{"ha":838,"x_min":0,"x_max":0,"o":"m 707 111 b 413 -7 660 39 540 0 b 375 -176 413 -79 397 -133 l 297 -176 b 340 -7 329 -137 336 -74 b 18 144 188 0 43 50 b 0 275 8 183 3 229 l 0 575 b 18 735 0 631 6 688 b 372 886 44 835 208 886 b 682 797 496 886 618 857 l 619 753 b 371 828 569 803 469 828 b 172 704 279 828 186 786 b 163 575 167 667 163 621 l 163 303 b 172 174 163 257 165 211 b 371 51 186 93 281 51 b 639 150 485 51 599 83 "},"Þ":{"ha":871,"x_min":0,"x_max":0,"o":"m 578 397 b 568 528 578 443 575 489 b 371 651 554 607 463 651 b 163 607 293 651 217 636 l 163 189 b 371 144 217 160 293 144 b 568 268 463 144 554 189 b 578 397 575 307 578 353 m 0 306 l 0 872 l 163 850 l 163 679 b 371 710 224 700 297 710 b 722 558 533 710 697 657 b 740 397 735 511 740 454 b 722 238 740 342 735 285 b 371 86 697 138 533 86 b 163 117 297 86 224 96 l 163 0 l 0 0 "},"ß":{"ha":857,"x_min":0,"x_max":0,"o":"m 415 832 b 351 835 397 835 375 835 b 163 808 271 835 211 826 l 163 524 l 381 524 b 547 683 493 529 547 589 b 415 832 547 774 508 819 m 0 389 l 0 785 b 349 893 61 861 199 893 b 674 768 497 893 650 853 b 686 683 682 738 686 710 b 553 500 686 592 651 538 b 738 263 704 460 738 376 b 722 153 738 228 732 192 b 371 -1 696 50 533 -1 b 215 15 317 -1 264 4 l 240 90 b 371 58 276 68 324 58 b 576 263 506 58 576 128 b 371 465 576 394 507 465 l 369 465 l 163 465 l 163 389 l 163 308 l 163 -186 l 0 -169 l 0 313 "},"þ":{"ha":871,"x_min":0,"x_max":0,"o":"m 578 306 b 568 436 578 351 575 397 b 371 560 554 515 463 560 b 163 515 293 560 217 544 l 163 97 b 371 53 217 68 293 53 b 568 176 463 53 554 96 b 578 306 575 215 578 261 m 0 306 l 0 872 l 163 850 l 163 588 b 371 618 224 608 297 618 b 722 467 533 618 697 565 b 740 306 735 419 740 363 b 722 146 740 250 735 193 b 371 -6 697 46 533 -6 b 163 25 297 -6 224 4 l 163 -231 l 0 -231 "},"‹":{"ha":503,"x_min":0,"x_max":0,"o":"m 174 579 l 363 579 l 188 392 l 363 206 l 174 206 l 0 392 l 174 579 "},"›":{"ha":494,"x_min":0,"x_max":0,"o":"m 189 579 l 363 392 l 189 206 l 0 206 l 175 392 l 0 579 "},"«":{"ha":797,"x_min":0,"x_max":0,"o":"m 363 579 l 188 392 l 363 206 l 174 206 l 0 392 l 174 579 m 654 579 l 479 392 l 654 206 l 465 206 l 292 392 l 465 579 "},"»":{"ha":785,"x_min":0,"x_max":0,"o":"m 481 579 l 654 392 l 481 206 l 292 206 l 467 392 l 292 579 m 189 579 l 363 392 l 189 206 l 0 206 l 175 392 l 0 579 "},"±":{"ha":661,"x_min":0,"x_max":0,"o":"m 525 388 l 308 388 l 308 172 l 215 172 l 215 388 l 0 388 l 0 481 l 215 481 l 215 696 l 308 696 l 308 481 l 525 481 m 525 -1 l 308 -1 l 215 -1 l 0 -1 l 0 92 l 215 92 l 308 92 l 525 92 "},"$":{"ha":817,"x_min":0,"x_max":0,"o":"m 68 150 b 317 51 106 88 210 54 l 317 379 b 10 664 103 451 10 542 b 317 885 14 808 168 874 l 317 967 l 379 967 l 379 886 b 682 797 500 885 619 856 l 619 753 b 379 828 571 801 476 826 l 379 515 b 696 228 539 464 696 393 b 379 -6 696 85 578 4 l 379 -87 l 317 -87 l 317 -7 b 0 111 182 -4 50 35 m 317 824 b 168 696 222 808 168 756 b 317 538 168 640 214 579 m 379 54 b 540 190 481 67 540 125 b 379 358 540 250 492 315 "},"<":{"ha":594,"x_min":0,"x_max":0,"o":"m 279 693 l 468 693 l 188 392 l 468 92 l 279 92 l 0 392 l 279 693 "},">":{"ha":585,"x_min":0,"x_max":0,"o":"m 189 693 l 468 392 l 189 92 l 0 92 l 281 392 l 0 693 "},"#":{"ha":925,"x_min":0,"x_max":0,"o":"m 789 522 l 769 461 l 561 461 l 518 340 l 733 340 l 715 279 l 496 279 l 424 81 l 358 81 l 429 279 l 279 279 l 208 81 l 142 81 l 214 279 l 8 279 l 28 340 l 236 340 l 279 461 l 64 461 l 82 522 l 301 522 l 374 721 l 439 721 l 368 522 l 518 522 l 589 721 l 654 721 l 583 522 l 789 522 m 451 340 l 496 461 l 346 461 l 301 340 l 451 340 "},"†":{"ha":639,"x_min":0,"x_max":0,"o":"m 524 624 l 290 624 l 290 -87 l 229 -87 l 229 624 l -1 624 l -1 689 l 229 689 l 229 967 l 290 967 l 290 689 l 524 689 "},"‡":{"ha":625,"x_min":0,"x_max":0,"o":"m 524 193 l 290 193 l 290 -87 l 229 -87 l 229 193 l -1 193 l -1 258 l 229 258 l 229 624 l -1 624 l -1 689 l 229 689 l 229 967 l 290 967 l 290 689 l 524 689 l 524 624 l 290 624 l 290 258 l 524 258 "},"Ð":{"ha":958,"x_min":0,"x_max":0,"o":"m 126 0 l 126 388 l 0 388 l 0 450 l 126 450 l 126 772 b 454 879 183 844 318 879 b 807 729 618 879 781 828 b 826 575 818 683 826 629 l 826 297 b 807 151 825 246 818 194 b 456 0 782 51 619 0 m 414 450 l 414 388 l 289 388 l 289 58 l 456 58 b 653 182 547 58 639 101 b 664 310 658 219 664 264 l 664 575 b 653 699 664 618 658 661 b 456 821 639 779 547 821 b 289 796 397 821 338 813 l 289 450 "},"ð":{"ha":943,"x_min":0,"x_max":0,"o":"m 740 299 b 724 142 740 243 735 188 b 369 -15 697 38 533 -15 b 18 139 207 -15 43 36 b 0 300 6 186 0 243 b 18 460 0 356 6 413 b 371 611 44 560 207 611 b 578 581 444 611 517 601 l 578 693 l 458 693 l 458 744 l 578 744 l 578 844 l 740 865 l 740 744 l 831 744 l 831 693 l 740 693 l 740 299 m 578 508 b 371 553 524 538 447 553 b 172 429 279 553 186 510 b 163 300 165 392 163 344 b 172 169 163 254 165 208 b 369 44 186 86 278 44 b 568 171 461 44 553 86 b 578 299 575 208 578 254 "},"°":{"ha":403,"x_min":0,"x_max":0,"o":"m 246 836 b 246 718 253 801 253 754 b 6 717 228 639 24 642 b 6 838 -3 751 -3 801 b 246 836 24 914 228 914 m 185 806 b 67 807 176 844 75 844 b 67 747 63 789 63 764 b 185 749 75 710 176 708 b 185 806 189 765 189 789 "},"Ł":{"ha":703,"x_min":0,"x_max":0,"o":"m 106 875 l 268 854 l 268 515 l 375 564 l 375 471 l 268 422 l 268 58 l 574 58 l 574 0 l 106 0 l 106 350 l 3 304 l 3 397 l 106 443 "},"ł":{"ha":481,"x_min":0,"x_max":0,"o":"m 100 865 l 263 844 l 263 515 l 369 564 l 369 471 l 263 422 l 263 0 l 100 0 l 100 350 l -3 304 l -3 397 l 100 443 "},"^":{"ha":693,"x_min":0,"x_max":0,"o":"m 143 356 l 0 356 l 225 536 l 251 536 l 297 536 l 347 536 l 571 356 l 429 356 l 390 388 l 285 471 l 182 388 "},"~":{"ha":797,"x_min":0,"x_max":0,"o":"m 54 379 l 0 461 b 631 460 210 586 457 346 l 679 378 b 54 379 469 253 228 492 "},"§":{"ha":825,"x_min":0,"x_max":0,"o":"m 67 -21 b 335 -119 107 -87 221 -119 b 539 19 461 -119 539 -54 b 339 201 539 85 479 158 b 8 493 122 267 8 364 b 93 644 8 554 44 603 b 8 821 29 697 8 763 b 371 1043 13 985 201 1043 b 681 954 494 1043 617 1014 l 618 910 b 369 985 568 960 468 985 b 167 851 243 985 167 924 b 363 676 167 789 226 718 b 694 385 525 626 694 558 b 621 225 694 325 668 265 b 694 56 674 172 694 119 b 335 -179 694 -101 543 -179 b -1 -60 193 -179 50 -140 m 521 289 b 539 349 532 307 539 328 b 339 529 539 413 479 486 b 189 586 288 544 236 564 b 167 524 175 567 167 546 b 363 349 167 461 226 390 b 521 289 417 332 472 314 "},"„":{"ha":421,"x_min":0,"x_max":0,"o":"m 0 115 l 122 99 l 122 -112 l 0 -92 m 168 115 l 290 99 l 290 -112 l 168 -92 "},"‚":{"ha":231,"x_min":0,"x_max":0,"o":"m 0 115 l 122 99 l 122 -112 l 0 -92 "}}}
